<?xml version="1.0" standalone="no"?><!DOCTYPE svg PUBLIC "-//W3C//DTD SVG 1.1//EN" "http://www.w3.org/Graphics/SVG/1.1/DTD/svg11.dtd"><svg class="icon" width="200px" height="200.00px" viewBox="0 0 1024 1024" version="1.1" xmlns="http://www.w3.org/2000/svg"><path d="M512 85.307731a170.666667 170.666667 0 1 1-170.666667 170.666666 170.666667 170.666667 0 0 1 170.666667-170.666666z m0 85.307731a85.307731 85.307731 0 1 0 85.358936 85.358935 85.307731 85.307731 0 0 0-85.358936-85.358935zM853.333333 255.974397a128.012801 128.012801 0 1 1-128.012801 128.012802 128.012801 128.012801 0 0 1 128.012801-128.012802z m0 85.307731a42.653865 42.653865 0 1 0 42.653866 42.653866 42.653865 42.653865 0 0 0-42.653866-42.653866zM170.666667 255.974397a128.012801 128.012801 0 1 1-128.012802 128.012802 128.012801 128.012801 0 0 1 128.012802-128.012802z m0 85.307731a42.653865 42.653865 0 1 0 42.653865 42.653866 42.653865 42.653865 0 0 0-42.653865-42.653866zM597.307731 469.346135a170.666667 170.666667 0 0 1 170.717872 170.666666v256.025603a42.653865 42.653865 0 0 1-42.653866 42.653865H298.628263a42.653865 42.653865 0 0 1-42.653866-42.70507v-256.025603a170.666667 170.666667 0 0 1 170.666667-170.615461z m85.307731 384.038403v-213.371737a85.307731 85.307731 0 0 0-85.307731-85.30773H426.641064a85.307731 85.307731 0 0 0-85.307731 85.30773v213.371737zM853.282128 810.679468a42.653865 42.653865 0 1 0 0 85.307731h128.012801a42.653865 42.653865 0 0 0 42.653866-42.653866v-128.012801a170.666667 170.666667 0 0 0-170.513051-170.666667 42.653865 42.653865 0 1 0 0 85.307731 85.307731 85.307731 0 0 1 85.20532 85.358936v85.358936zM85.461346 810.679468h85.358936a42.653865 42.653865 0 1 1 0 85.307731h-128.012801a42.653865 42.653865 0 0 1-42.653866-42.653866v-128.012801a170.666667 170.666667 0 0 1 170.513052-170.666667 42.653865 42.653865 0 0 1 0 85.307731 85.307731 85.307731 0 0 0-85.205321 85.358936z" fill="#979797" /></svg>