<?xml version="1.0" standalone="no"?><!DOCTYPE svg PUBLIC "-//W3C//DTD SVG 1.1//EN" "http://www.w3.org/Graphics/SVG/1.1/DTD/svg11.dtd"><svg class="icon" width="200px" height="200.00px" viewBox="0 0 1024 1024" version="1.1" xmlns="http://www.w3.org/2000/svg"><path d="M914.974118 12.047059 371.651765 12.047059c-50.597647 0-92.16 41.562353-92.16 92.16l0 138.541176L103.002353 242.748235C49.392941 242.748235 6.023529 286.117647 6.023529 339.727059l0 577.054118c0 53.609412 43.369412 96.978824 96.978824 96.978824l577.054118 0c53.609412 0 96.978824-43.369412 96.978824-96.978824l0-176.489412 138.541176 0c50.597647 0 92.16-41.562353 92.16-92.16L1007.736471 104.207059C1007.134118 53.609412 966.174118 12.047059 914.974118 12.047059zM740.291765 916.178824c0 33.731765-27.105882 60.837647-60.837647 60.837647L103.002353 977.016471c-33.731765 0-60.837647-27.105882-60.837647-60.837647L42.164706 339.727059c0-33.731765 27.105882-60.837647 60.837647-60.837647l577.054118 0c33.731765 0 60.837647 27.105882 60.837647 60.837647L740.894118 916.178824zM970.992941 647.529412c0 30.72-25.298824 56.018824-56.018824 56.018824l-138.541176 0L776.432941 339.727059c0-53.609412-43.369412-96.978824-96.978824-96.978824L315.632941 242.748235l0-138.541176c0-30.72 25.298824-56.018824 56.018824-56.018824l543.322353 0c30.72 0 56.018824 25.298824 56.018824 56.018824L970.992941 647.529412z" /></svg>